# xmcd CD database file
#
# Track frame offsets:
#	150
#	12080
#	27312
#	49954
#	67261
#	79556
#	93698
#	106189
#	124367
#	145186
#	166223
#	178489
#
# Disc length: 2679 seconds
#
# Revision: 0
# Processed by: cddbd v1.5.2PL0 Copyright (c) Steve Scherf et al.
# Submitted via: CDex 1.51
#
DISCID=a80a750c
DTITLE=Linda McGarvey - From Powell River To Praire Sun
DYEAR=2012
DGENRE=Country
TTITLE0=Country Fiddle
TTITLE1=You Are The Light
TTITLE2=Boarded A Train
TTITLE3=Angels With Us
TTITLE4=I Need Your Love
TTITLE5=Coming Home To My Body
TTITLE6=No More Separation
TTITLE7=Powell River
TTITLE8=Reaching Out
TTITLE9=Follow The River
TTITLE10=I Need Your Love (inst)
TTITLE11=Boarded A Train (inst)
EXTD=YEAR: 2012
EXTT0=
EXTT1=
EXTT2=
EXTT3=
EXTT4=
EXTT5=
EXTT6=
EXTT7=
EXTT8=
EXTT9=
EXTT10=
EXTT11=
PLAYORDER=
